<mxfile host="65bd71144e">
    <diagram id="3N85-Yc-Dd_1ZOEVL8Rn" name="Page-1">
        <mxGraphModel dx="741" dy="437" grid="1" gridSize="10" guides="1" tooltips="1" connect="1" arrows="1" fold="1" page="1" pageScale="1" pageWidth="827" pageHeight="1169" math="0" shadow="0">
            <root>
                <mxCell id="0"/>
                <mxCell id="1" parent="0"/>
                <mxCell id="3" value="" style="edgeStyle=orthogonalEdgeStyle;html=1;endArrow=none;elbow=vertical;startArrow=block;startFill=1;strokeColor=#545B64;rounded=0;" edge="1" parent="1" source="5" target="8">
                    <mxGeometry width="100" relative="1" as="geometry">
                        <mxPoint x="160" y="80" as="sourcePoint"/>
                        <mxPoint x="649" y="120" as="targetPoint"/>
                        <Array as="points">
                            <mxPoint x="140" y="310"/>
                            <mxPoint x="140" y="310"/>
                        </Array>
                    </mxGeometry>
                </mxCell>
                <mxCell id="5" value="Amazon API Gateway" style="sketch=0;outlineConnect=0;fontColor=#232F3E;gradientColor=none;strokeColor=#ffffff;fillColor=#232F3E;dashed=0;verticalLabelPosition=middle;verticalAlign=bottom;align=center;html=1;whiteSpace=wrap;fontSize=10;fontStyle=1;spacing=3;shape=mxgraph.aws4.productIcon;prIcon=mxgraph.aws4.api_gateway;" vertex="1" parent="1">
                    <mxGeometry x="200" y="280" width="80" height="110" as="geometry"/>
                </mxCell>
                <mxCell id="6" value="Amazon S3" style="sketch=0;outlineConnect=0;fontColor=#232F3E;gradientColor=none;strokeColor=#ffffff;fillColor=#232F3E;dashed=0;verticalLabelPosition=middle;verticalAlign=bottom;align=center;html=1;whiteSpace=wrap;fontSize=10;fontStyle=1;spacing=3;shape=mxgraph.aws4.productIcon;prIcon=mxgraph.aws4.s3;" vertex="1" parent="1">
                    <mxGeometry x="360" y="120" width="80" height="100" as="geometry"/>
                </mxCell>
                <mxCell id="7" value="AWS Lambda" style="sketch=0;outlineConnect=0;fontColor=#232F3E;gradientColor=none;strokeColor=#ffffff;fillColor=#232F3E;dashed=0;verticalLabelPosition=middle;verticalAlign=bottom;align=center;html=1;whiteSpace=wrap;fontSize=10;fontStyle=1;spacing=3;shape=mxgraph.aws4.productIcon;prIcon=mxgraph.aws4.lambda;" vertex="1" parent="1">
                    <mxGeometry x="360" y="280" width="80" height="100" as="geometry"/>
                </mxCell>
                <mxCell id="8" value="User" style="sketch=0;outlineConnect=0;fontColor=#232F3E;gradientColor=none;strokeColor=#232F3E;fillColor=#ffffff;dashed=0;verticalLabelPosition=bottom;verticalAlign=top;align=center;html=1;fontSize=12;fontStyle=0;aspect=fixed;shape=mxgraph.aws4.resourceIcon;resIcon=mxgraph.aws4.user;" vertex="1" parent="1">
                    <mxGeometry x="50" y="290" width="60" height="60" as="geometry"/>
                </mxCell>
                <mxCell id="9" value="Amazon DynamoDB" style="sketch=0;outlineConnect=0;fontColor=#232F3E;gradientColor=none;strokeColor=#ffffff;fillColor=#232F3E;dashed=0;verticalLabelPosition=middle;verticalAlign=bottom;align=center;html=1;whiteSpace=wrap;fontSize=10;fontStyle=1;spacing=3;shape=mxgraph.aws4.productIcon;prIcon=mxgraph.aws4.dynamodb;" vertex="1" parent="1">
                    <mxGeometry x="360" y="440" width="80" height="110" as="geometry"/>
                </mxCell>
                <mxCell id="10" value="" style="edgeStyle=orthogonalEdgeStyle;html=1;endArrow=none;elbow=vertical;startArrow=block;startFill=1;strokeColor=#545B64;rounded=0;" edge="1" parent="1" source="7" target="6">
                    <mxGeometry width="100" relative="1" as="geometry">
                        <mxPoint x="490" y="240" as="sourcePoint"/>
                        <mxPoint x="400" y="240" as="targetPoint"/>
                        <Array as="points"/>
                    </mxGeometry>
                </mxCell>
                <mxCell id="13" value="" style="html=1;labelBackgroundColor=#ffffff;startArrow=classic;startFill=1;startSize=6;endArrow=classic;endFill=1;endSize=6;jettySize=auto;orthogonalLoop=1;strokeWidth=1;fontSize=14;" edge="1" parent="1" source="9" target="7">
                    <mxGeometry width="60" height="60" relative="1" as="geometry">
                        <mxPoint x="400" y="430" as="sourcePoint"/>
                        <mxPoint x="570" y="330" as="targetPoint"/>
                    </mxGeometry>
                </mxCell>
                <mxCell id="14" value="Amazon CloudWatch" style="sketch=0;outlineConnect=0;fontColor=#232F3E;gradientColor=none;strokeColor=#ffffff;fillColor=#232F3E;dashed=0;verticalLabelPosition=middle;verticalAlign=bottom;align=center;html=1;whiteSpace=wrap;fontSize=10;fontStyle=1;spacing=3;shape=mxgraph.aws4.productIcon;prIcon=mxgraph.aws4.cloudwatch;" vertex="1" parent="1">
                    <mxGeometry x="530" y="280" width="80" height="110" as="geometry"/>
                </mxCell>
                <mxCell id="15" value="`" style="edgeStyle=orthogonalEdgeStyle;html=1;endArrow=none;elbow=vertical;startArrow=block;startFill=1;strokeColor=#545B64;rounded=0;" edge="1" parent="1">
                    <mxGeometry width="100" relative="1" as="geometry">
                        <mxPoint x="530" y="319.5" as="sourcePoint"/>
                        <mxPoint x="440" y="319.5" as="targetPoint"/>
                        <Array as="points">
                            <mxPoint x="470" y="319.5"/>
                            <mxPoint x="470" y="319.5"/>
                        </Array>
                    </mxGeometry>
                </mxCell>
                <mxCell id="16" value="" style="endArrow=classic;startArrow=classic;html=1;" edge="1" parent="1">
                    <mxGeometry width="50" height="50" relative="1" as="geometry">
                        <mxPoint x="280" y="321.25" as="sourcePoint"/>
                        <mxPoint x="360" y="321" as="targetPoint"/>
                    </mxGeometry>
                </mxCell>
                <mxCell id="17" value="" style="sketch=0;outlineConnect=0;fontColor=#232F3E;gradientColor=none;fillColor=#DD344C;strokeColor=none;dashed=0;verticalLabelPosition=bottom;verticalAlign=top;align=center;html=1;fontSize=12;fontStyle=0;aspect=fixed;pointerEvents=1;shape=mxgraph.aws4.role;" vertex="1" parent="1">
                    <mxGeometry x="410" y="256" width="42.54" height="24" as="geometry"/>
                </mxCell>
                <mxCell id="25" value="&lt;span style=&quot;color: rgb(0, 0, 0); font-size: 13px; font-weight: 400;&quot;&gt;AWS Architecture Diagram for URL Shortening App&lt;/span&gt;" style="text;html=1;align=left;verticalAlign=middle;resizable=0;points=[];autosize=1;strokeColor=none;fillColor=none;fontSize=16;fontColor=#0070F2;fontFamily=Helvetica;fontStyle=1" vertex="1" parent="1">
                    <mxGeometry x="240" y="50" width="320" height="30" as="geometry"/>
                </mxCell>
            </root>
        </mxGraphModel>
    </diagram>
</mxfile>